# AST/ASF file generated using VICON BodyLanguage
# -----------------------------------------------
:version 1.10
:name VICON
:units
  mass 1.0
  length 0.45
  angle deg
:documentation
   .ast/.asf automatically generated from VICON data using
   VICON BodyBuilder and BodyLanguage model FoxedUp or BRILLIANT.MOD
:root
   order TX TY TZ RX RY RZ
   axis XYZ
   position 0 0 0  
   orientation 0 0 0 
:bonedata
  begin
     id 1 
     name lhipjoint
     direction 0.693937 -0.600361 0.397515 
     length 2.37164 
     axis 0 0 0  XYZ
  end
  begin
     id 2 
     name lfemur
     direction 0.34202 -0.939693 0  
     length 6.18497  
     axis 0 0 20  XYZ
    dof rx ry rz
    limits (-160.0 20.0)
           (-70.0 70.0)
           (-60.0 70.0)
  end
  begin
     id 3 
     name ltibia
     direction 0.34202 -0.939693 0   
     length 6.91601   
     axis 0 0 20   XYZ
    dof rx
    limits (-10.0 170.0)
  end
  begin
     id 4 
     name lfoot
     direction 0.0978718 -0.2689 0.958182   
     length 1.81453   
     axis -90 7.62852e-016 20   XYZ
    dof rx rz
    limits (-45.0 90.0)
           (-70.0 20.0)
  end
  begin
     id 5 
     name ltoes
     direction 1.53569e-011 -4.21951e-011 1   
     length 0.912052   
     axis -90 7.62852e-016 20   XYZ
    dof rx
    limits (-90.0 20.0)
  end
  begin
     id 6 
     name rhipjoint
     direction -0.643996 -0.637876 0.422354   
     length 2.23216  
     axis 0 0 0  XYZ 
  end
  begin
     id 7 
     name rfemur
     direction -0.34202 -0.939693 0   
     length 6.15404   
     axis 0 0 -20   XYZ
    dof rx ry rz
    limits (-160.0 20.0)
           (-70.0 70.0)
           (-70.0 60.0)
  end
  begin
     id 8 
     name rtibia
     direction -0.34202 -0.939693 0   
     length 6.86744   
     axis 0 0 -20   XYZ
    dof rx
    limits (-10.0 170.0)
 end
 begin
     id 9 
     name rfoot
     direction -0.118701 -0.326127 0.937844   
     length 1.9243  
     axis -90 -7.62852e-016 -20   XYZ
    dof rx rz
    limits (-45.0 90.0)
           (-20.0 70.0)
  end
  begin
     id 10 
     name rtoes
     direction -1.5356e-011 -4.2181e-011 1   
     length 0.958865   
     axis -90 -7.62852e-016 -20   XYZ
    dof rx
    limits (-90.0 20.0)
  end
  begin
     id 11 
     name lowerback
     direction 0.0310826 0.968686 -0.246334   
     length 2.00021   
     axis 0 0 0   XYZ
    dof rx ry rz
    limits (-20.0 45.0)
           (-30.0 30.0)
           (-30.0 30.0)
  end
  begin
     id 12 
     name upperback
     direction -0.0152834 0.999474 -0.0286152   
     length 2.03728   
     axis 0 0 0   XYZ
    dof rx ry rz
    limits (-20.0 45.0)
           (-30.0 30.0)
           (-30.0 30.0)
  end
  begin
     id 13 
     name thorax
     direction -0.0323701 0.996236 0.0804149   
     length 2.16   
     axis 0 0 0   XYZ
    dof rx ry rz
    limits (-20.0 45.0)
           (-30.0 30.0)
           (-30.0 30.0)
  end
  begin
     id 14 
     name lowerneck
     direction 0.0307935 0.982251 0.185027   
     length 1.43558   
     axis 0 0 0   XYZ
    dof rx ry rz
    limits (-20.0 45.0)
           (-30.0 30.0)
           (-30.0 30.0)
  end
  begin
     id 15 
     name upperneck
     direction -0.0927153 0.994775 0.0427454   
     length 1.44603   
     axis 0 0 0   XYZ
    dof rx ry rz
    limits (-20.0 45.0)
           (-30.0 30.0)
           (-30.0 30.0)
  end
  begin
     id 16
     name head
     direction -0.0341265 0.999406 -0.00472033  
     length 1.45931  
     axis 0 0 0   XYZ
    dof rx ry rz
    limits (-20.0 45.0)
           (-30.0 30.0)
           (-30.0 30.0)
  end
  begin
     id 17 
     name lclavicle
     direction 0.820755 0.555306 -0.134151  
     length 2.66075  
     axis 0 0 0   XYZ
    dof ry rz
    limits (-20.0 10.0)
           (0.0 20.0)
  end
  begin
     id 18 
     name lhumerus
     direction 1 -4.48971e-011 5.24853e-027   
     length 5.0546   
     axis -180 -30 -90   XYZ
    dof rx ry rz
    limits (-60.0 90.0)
           (-90.0 90.0)
           (-90.0 90.0)
  end
  begin
     id 19
     name lradius
     direction 1 -4.48971e-011 2.76575e-028   
     length 3.39013   
     axis -180 -30 -90   XYZ
    dof rx
    limits (-10.0 170.0)
  end
  begin
     id 20
     name lwrist
     direction 1 -4.48939e-011 -2.27826e-027   
     length 1.69507   
     axis 2.17013e-015 90 90   XYZ
    dof ry
    limits (-180.0 0.0)
 end
  begin
     id 21 
     name lhand
     direction 1 -4.49009e-011 -4.55652e-027   
     length 0.572425   
     axis 2.90745e-015 90 90   XYZ
    dof rx rz
    limits (-90.0 90.0)
           (-45.0 45.0)
  end
  begin
     id 22 
     name lfingers
     direction 1 -4.48955e-011 -9.11303e-027   
     length 0.461504   
     axis 5.81489e-015 90 90   XYZ
    dof rx
    limits (0.0 90.0)
  end
  begin
     id 23
     name lthumb
     direction 0.707107 -6.34929e-011 0.707107   
     length 0.66263   
     axis -90 45 2.85299e-015   XYZ
    dof rx rz
    limits (-45.0 45.0)
           (-45.0 45.0)
  end
  begin
     id 24 
     name rclavicle
     direction -0.754477 0.632921 -0.173712   
     length 2.73081  
     axis 0 0 0   XYZ 
    dof ry rz
    limits (-10.0 20.0)
           (-20.0 0.0)
  end
  begin
     id 25 
     name rhumerus
     direction -1 -4.48969e-011 5.1496e-027  
     length 5.0701   
     axis -180 30 90   XYZ
    dof rx ry rz
    limits (-90.0 60.0)
           (-90.0 90.0)
           (-90.0 90.0)
  end
  begin
     id 26 
     name rradius
     direction -1 -4.48967e-011 -7.15624e-028   
     length 3.14957   
     axis -180 30 90   XYZ
    dof rx
    limits (-10.0 170.0)
  end
  begin
     id 27 
     name rwrist
     direction -1 -4.48938e-011 -2.27826e-027   
     length 1.57479   
     axis 2.17013e-015 -90 -90   XYZ
    dof ry
    limits (-180.0 0.0)
  end
  begin
     id 28
     name rhand
     direction -1 -4.49008e-011 -4.55652e-027   
     length 0.718191   
     axis 2.90745e-015 -90 -90   XYZ
    dof rx rz
    limits (-90.0 90.0)
           (-45.0 45.0)
  end
  begin
     id 29
     name rfingers
     direction -1 -4.48953e-011 -9.11303e-027   
     length 0.579024   
     axis 5.81489e-015 -90 -90   XYZ
    dof rx
    limits (0.0 90.0)
  end
  begin
     id 30
     name rthumb
     direction -0.707107 -6.34937e-011 0.707107   
     length 0.831366   
     axis -90 -45 -2.85299e-015   XYZ
    dof rx rz
    limits (-45.0 45.0)
           (-45.0 45.0)
  end
:hierarchy
  begin
    root lhipjoint rhipjoint lowerback
    lhipjoint lfemur
    lfemur ltibia
    ltibia lfoot
    lfoot ltoes
    rhipjoint rfemur
    rfemur rtibia
    rtibia rfoot
    rfoot rtoes
    lowerback upperback
    upperback thorax
    thorax lowerneck lclavicle rclavicle
    lowerneck upperneck
    upperneck head
    lclavicle lhumerus
    lhumerus lradius
    lradius lwrist
    lwrist lhand lthumb
    lhand lfingers
    rclavicle rhumerus
    rhumerus rradius
    rradius rwrist
    rwrist rhand rthumb
    rhand rfingers
  end

#!OML:ASF H:\Male1\Project 1\Capture day 1\Session 1\Male1.ASF
:FULLY-SPECIFIED
:DEGREES
189
root 11.4604 15.0001 0.898081 -57.0278 -93.5272 42.4209
lowerback 14.4743 0.726408 9.11759
upperback 10.2877 1.21679 2.35641
thorax 3.0847 0.712166 -2.77536
lowerneck -4.98236 3.29496 11.8402
upperneck 8.7885 4.79362 -15.514
head 4.07791 2.01331 -6.55941
rclavicle -2.44505e-014 -1.35174e-014
rhumerus -26.6935 28.5555 -69.9892
rradius 58.9915
rwrist -27.3463
rhand -16.7845 2.80127
rfingers 7.12502
rthumb 9.44325 -26.9672
lclavicle -2.44505e-014 -1.35174e-014
lhumerus -30.1221 4.09642 81.1457
lradius 23.445
lwrist -5.987
lhand -17.9783 7.52929
lfingers 7.12502
lthumb 8.29123 37.3466
rfemur 7.70169 2.4385 32.5151
rtibia 25.6789
rfoot -28.1219 -26.8871
rtoes 2.12817
lfemur -49.7965 -23.8069 -7.83926
ltibia 39.4788
lfoot -4.17766 14.1441
ltoes -8.00969
190
root 11.5195 14.9945 0.912949 -66.4389 -92.9167 52.185
lowerback 14.3502 0.682946 8.91715
upperback 10.166 1.15545 2.31619
thorax 2.99873 0.675485 -2.7001
lowerneck -4.97252 3.14292 11.745
upperneck 8.53946 4.55779 -15.3416
head 3.96241 1.90832 -6.49763
rclavicle 8.34896e-015 1.82882e-014
rhumerus -26.8984 28.8834 -70.3173
rradius 59.4871
rwrist -27.6063
rhand -16.948 2.72616
rfingers 7.12502
rthumb 9.28549 -27.0494
lclavicle 8.34896e-015 1.82882e-014
lhumerus -29.5473 4.00751 81.1547
lradius 23.811
lwrist -5.81075
lhand -17.909 7.70243
lfingers 7.12502
lthumb 8.35819 37.5171
rfemur 6.73011 2.52453 32.345
rtibia 26.3642
rfoot -28.837 -27.2643
rtoes 2.55572
lfemur -49.2242 -23.3817 -9.16667
ltibia 40.5932
lfoot -4.48707 13.0214
ltoes -10.731
191
root 11.5783 14.9846 0.928466 -78.7961 -92.813 64.9036
lowerback 14.2324 0.638344 8.95169
upperback 10.0201 1.11344 2.42564
thorax 2.8951 0.651632 -2.59956
lowerneck -4.97872 3.02224 11.4662
upperneck 8.4388 4.38536 -15.1041
head 3.89801 1.82705 -6.38046
rclavicle 1.98785e-016 -1.19271e-014
rhumerus -27.1256 29.265 -70.6416
rradius 59.9379
rwrist -27.5479
rhand -17.2522 2.80253
rfingers 7.12502
rthumb 8.99195 -26.9858
lclavicle 1.98785e-016 -1.19271e-014
lhumerus -29.2416 4.09176 81.2525
lradius 24.5632
lwrist -5.6606
lhand -17.7032 8.30557
lfingers 7.12502
lthumb 8.55681 38.1122
rfemur 5.64625 2.62184 32.5178
rtibia 27.2348
rfoot -29.4737 -27.5394
rtoes 2.692
lfemur -48.6126 -22.8123 -10.0693
ltibia 41.9663
lfoot -5.01363 11.8667
ltoes -12.8419
192
root 11.6398 14.9731 0.948316 -93.4724 -92.7277 79.9619
lowerback 14.0834 0.630612 9.04486
upperback 9.87473 1.12843 2.41508
thorax 2.82117 0.666838 -2.66361
lowerneck -5.11913 2.81655 11.3473
upperneck 8.45746 4.08502 -14.8714
head 3.87855 1.68147 -6.30067
rclavicle -1.23246e-014 -1.59028e-014
rhumerus -27.4411 29.138 -71.0957
rradius 60.3624
rwrist -27.2401
rhand -17.4531 3.13825
rfingers 7.12502
rthumb 8.79817 -26.6584
lclavicle -1.23246e-014 -1.59028e-014
lhumerus -29.0401 3.45893 81.4959
lradius 25.8225
lwrist -4.74594
lhand -17.3758 9.32457
lfingers 7.12502
lthumb 8.87275 39.118
rfemur 4.53288 2.46136 32.4513
rtibia 28.1443
rfoot -30.1943 -27.5365
rtoes 3.35413
lfemur -48.0713 -22.442 -11.0471
ltibia 43.6798
lfoot -5.50563 11.0173
ltoes -15.026
193
root 11.705 14.9507 0.967086 -110.548 -92.6235 97.4202
lowerback 14.0428 0.638065 8.97084
upperback 9.73314 1.16058 2.29134
thorax 2.68964 0.684949 -2.75804
lowerneck -5.40656 2.69001 11.2987
upperneck 8.41224 3.8671 -14.5838
head 3.87824 1.5784 -6.20848
rclavicle -3.97569e-016 -2.06736e-014
rhumerus -27.7731 28.9591 -71.6287
rradius 60.8505
rwrist -27.0651
rhand -17.6045 3.55885
rfingers 7.12502
rthumb 8.65198 -26.2439
lclavicle -3.97569e-016 -2.06736e-014
lhumerus -28.827 2.44826 81.7823
lradius 27.2538
lwrist -3.46099
lhand -17.3375 9.81389
lfingers 7.12502
lthumb 8.90967 39.6058
rfemur 3.38055 2.2754 32.1397
rtibia 29.1307
rfoot -31.1569 -27.4461
rtoes 4.16606
lfemur -47.5755 -22.2437 -12.1457
ltibia 45.5757
lfoot -5.94141 10.3226
ltoes -16.266
194
root 11.7774 14.9314 0.981918 -120.675 -92.935 107.952
lowerback 14.0363 0.629414 9.01258
upperback 9.59438 1.17789 2.31844
thorax 2.54444 0.691881 -2.75652
lowerneck -5.56634 2.58053 11.0403
upperneck 8.15136 3.67919 -14.2584
head 3.79258 1.49252 -6.06463
rclavicle -2.64384e-014 -4.53229e-014
rhumerus -28.0441 29.1632 -72.1217
rradius 61.4376
rwrist -27.0955
rhand -17.8554 3.72959
rfingers 7.12502
rthumb 8.40988 -26.083
lclavicle -2.64384e-014 -4.53229e-014
lhumerus -28.6463 1.85338 82.0668
lradius 28.6207
lwrist -2.52248
lhand -17.6367 9.68928
lfingers 7.12502
lthumb 8.62093 39.4933
rfemur 2.14479 2.38001 32.2376
rtibia 30.1439
rfoot -32.163 -27.4911
rtoes 4.55839
lfemur -46.9873 -21.8693 -12.8136
ltibia 47.7746
lfoot -6.84767 9.37023
ltoes -16.1377
195
root 11.8419 14.9023 0.998508 -125.296 -93.325 112.998
lowerback 13.8921 0.649636 9.09132
upperback 9.48577 1.21603 2.39795
thorax 2.50873 0.712994 -2.71965
lowerneck -5.6393 2.45121 10.8847
upperneck 7.79827 3.47103 -14.1275
head 3.66822 1.39477 -6.00278
rclavicle -7.15625e-015 -1.98785e-014
rhumerus -28.2377 29.4862 -72.5894
rradius 61.993
rwrist -27.3167
rhand -18.1527 3.88369
rfingers 7.12502
rthumb 8.12294 -25.9402
lclavicle -7.15625e-015 -1.98785e-014
lhumerus -28.5056 1.3782 82.3826
lradius 30.0267
lwrist -1.58845
lhand -17.8597 9.48435
lfingers 7.12502
lthumb 8.40573 39.2971
rfemur 0.89017 2.6047 32.4496
rtibia 31.2038
rfoot -33.1103 -27.5504
rtoes 4.87484
lfemur -46.4733 -21.587 -13.1837
ltibia 50.1151
lfoot -7.92134 8.67359
ltoes -17.813
